<mxfile host="app.diagrams.net" modified="2024-05-23T16:36:04.864Z" agent="Mozilla/5.0 (Windows NT 10.0; Win64; x64) AppleWebKit/537.36 (KHTML, like Gecko) Chrome/123.0.0.0 Safari/537.36 OPR/109.0.0.0 (Edition std-1)" etag="6-Gn4LvON7Z1Pyi9Z6lg" version="24.4.6" type="google">
  <diagram name="PÃ¡gina-1" id="nSMeosmwIrjSUpkZMAuP">
    <mxGraphModel grid="1" page="1" gridSize="10" guides="1" tooltips="1" connect="1" arrows="1" fold="1" pageScale="1" pageWidth="827" pageHeight="1169" math="0" shadow="0">
      <root>
        <mxCell id="0" />
        <mxCell id="1" parent="0" />
        <mxCell id="ugPQJOIu22FoE4jq5PuM-1" value="" style="swimlane;startSize=0;" vertex="1" parent="1">
          <mxGeometry x="140" y="90" width="730" height="730" as="geometry" />
        </mxCell>
        <mxCell id="ugPQJOIu22FoE4jq5PuM-6" value="Ingresa a la pagina" style="ellipse;whiteSpace=wrap;html=1;aspect=fixed;" vertex="1" parent="ugPQJOIu22FoE4jq5PuM-1">
          <mxGeometry x="30" y="40" width="80" height="80" as="geometry" />
        </mxCell>
        <mxCell id="ugPQJOIu22FoE4jq5PuM-7" value="Registrarse" style="ellipse;whiteSpace=wrap;html=1;aspect=fixed;" vertex="1" parent="ugPQJOIu22FoE4jq5PuM-1">
          <mxGeometry x="170" y="30" width="80" height="80" as="geometry" />
        </mxCell>
        <mxCell id="ugPQJOIu22FoE4jq5PuM-8" value="Loguearse" style="ellipse;whiteSpace=wrap;html=1;aspect=fixed;" vertex="1" parent="ugPQJOIu22FoE4jq5PuM-1">
          <mxGeometry x="120" y="160" width="80" height="80" as="geometry" />
        </mxCell>
        <mxCell id="ugPQJOIu22FoE4jq5PuM-9" value="seleccionar playlist" style="ellipse;whiteSpace=wrap;html=1;aspect=fixed;" vertex="1" parent="ugPQJOIu22FoE4jq5PuM-1">
          <mxGeometry x="210" y="290" width="80" height="80" as="geometry" />
        </mxCell>
        <mxCell id="ugPQJOIu22FoE4jq5PuM-10" value="eligir una cancion" style="ellipse;whiteSpace=wrap;html=1;aspect=fixed;" vertex="1" parent="ugPQJOIu22FoE4jq5PuM-1">
          <mxGeometry x="380" y="180" width="80" height="80" as="geometry" />
        </mxCell>
        <mxCell id="ugPQJOIu22FoE4jq5PuM-12" value="obtener listado de la canciones" style="ellipse;whiteSpace=wrap;html=1;aspect=fixed;" vertex="1" parent="ugPQJOIu22FoE4jq5PuM-1">
          <mxGeometry x="330" y="390" width="80" height="80" as="geometry" />
        </mxCell>
        <mxCell id="ugPQJOIu22FoE4jq5PuM-16" value="" style="endArrow=none;html=1;rounded=0;exitX=1;exitY=0.5;exitDx=0;exitDy=0;" edge="1" parent="ugPQJOIu22FoE4jq5PuM-1" source="ugPQJOIu22FoE4jq5PuM-6" target="ugPQJOIu22FoE4jq5PuM-7">
          <mxGeometry width="50" height="50" relative="1" as="geometry">
            <mxPoint x="110" y="90" as="sourcePoint" />
            <mxPoint x="160" y="40" as="targetPoint" />
          </mxGeometry>
        </mxCell>
        <mxCell id="ugPQJOIu22FoE4jq5PuM-17" value="" style="endArrow=none;html=1;rounded=0;entryX=0.663;entryY=0.963;entryDx=0;entryDy=0;entryPerimeter=0;" edge="1" parent="ugPQJOIu22FoE4jq5PuM-1" source="ugPQJOIu22FoE4jq5PuM-8" target="ugPQJOIu22FoE4jq5PuM-6">
          <mxGeometry width="50" height="50" relative="1" as="geometry">
            <mxPoint x="40" y="190" as="sourcePoint" />
            <mxPoint x="90" y="140" as="targetPoint" />
          </mxGeometry>
        </mxCell>
        <mxCell id="ugPQJOIu22FoE4jq5PuM-22" value="seleccionar gustos musicales" style="ellipse;whiteSpace=wrap;html=1;aspect=fixed;" vertex="1" parent="ugPQJOIu22FoE4jq5PuM-1">
          <mxGeometry x="280" y="95" width="80" height="80" as="geometry" />
        </mxCell>
        <mxCell id="ugPQJOIu22FoE4jq5PuM-24" value="" style="endArrow=none;html=1;rounded=0;exitX=0.75;exitY=0.938;exitDx=0;exitDy=0;exitPerimeter=0;" edge="1" parent="ugPQJOIu22FoE4jq5PuM-1" source="ugPQJOIu22FoE4jq5PuM-7" target="ugPQJOIu22FoE4jq5PuM-22">
          <mxGeometry width="50" height="50" relative="1" as="geometry">
            <mxPoint x="100" y="30" as="sourcePoint" />
            <mxPoint x="320.71067811865476" y="70" as="targetPoint" />
          </mxGeometry>
        </mxCell>
        <mxCell id="ugPQJOIu22FoE4jq5PuM-26" value="" style="endArrow=none;html=1;rounded=0;entryX=0.775;entryY=0.95;entryDx=0;entryDy=0;entryPerimeter=0;" edge="1" parent="ugPQJOIu22FoE4jq5PuM-1" source="ugPQJOIu22FoE4jq5PuM-9" target="ugPQJOIu22FoE4jq5PuM-22">
          <mxGeometry width="50" height="50" relative="1" as="geometry">
            <mxPoint x="240" y="270" as="sourcePoint" />
            <mxPoint x="290" y="220" as="targetPoint" />
          </mxGeometry>
        </mxCell>
        <mxCell id="ugPQJOIu22FoE4jq5PuM-27" value="" style="endArrow=none;html=1;rounded=0;entryX=1;entryY=1;entryDx=0;entryDy=0;" edge="1" parent="ugPQJOIu22FoE4jq5PuM-1" source="ugPQJOIu22FoE4jq5PuM-9" target="ugPQJOIu22FoE4jq5PuM-8">
          <mxGeometry width="50" height="50" relative="1" as="geometry">
            <mxPoint x="130" y="290" as="sourcePoint" />
            <mxPoint x="180" y="240" as="targetPoint" />
          </mxGeometry>
        </mxCell>
        <mxCell id="ugPQJOIu22FoE4jq5PuM-43" value="" style="endArrow=none;html=1;rounded=0;exitX=0.975;exitY=0.725;exitDx=0;exitDy=0;exitPerimeter=0;" edge="1" parent="ugPQJOIu22FoE4jq5PuM-1" source="ugPQJOIu22FoE4jq5PuM-8" target="ugPQJOIu22FoE4jq5PuM-10">
          <mxGeometry width="50" height="50" relative="1" as="geometry">
            <mxPoint x="230" y="260" as="sourcePoint" />
            <mxPoint x="280" y="210" as="targetPoint" />
          </mxGeometry>
        </mxCell>
        <mxCell id="ugPQJOIu22FoE4jq5PuM-44" value="" style="endArrow=none;html=1;rounded=0;exitX=1;exitY=1;exitDx=0;exitDy=0;" edge="1" parent="ugPQJOIu22FoE4jq5PuM-1" source="ugPQJOIu22FoE4jq5PuM-22" target="ugPQJOIu22FoE4jq5PuM-10">
          <mxGeometry width="50" height="50" relative="1" as="geometry">
            <mxPoint x="300" y="170" as="sourcePoint" />
            <mxPoint x="350" y="120" as="targetPoint" />
          </mxGeometry>
        </mxCell>
        <mxCell id="ugPQJOIu22FoE4jq5PuM-45" value="" style="endArrow=none;html=1;rounded=0;entryX=0.5;entryY=1;entryDx=0;entryDy=0;" edge="1" parent="ugPQJOIu22FoE4jq5PuM-1" source="ugPQJOIu22FoE4jq5PuM-12" target="ugPQJOIu22FoE4jq5PuM-9">
          <mxGeometry width="50" height="50" relative="1" as="geometry">
            <mxPoint x="200" y="430" as="sourcePoint" />
            <mxPoint x="250" y="380" as="targetPoint" />
          </mxGeometry>
        </mxCell>
        <mxCell id="ugPQJOIu22FoE4jq5PuM-46" value="reproducir una cancion" style="ellipse;whiteSpace=wrap;html=1;aspect=fixed;" vertex="1" parent="ugPQJOIu22FoE4jq5PuM-1">
          <mxGeometry x="440" y="300" width="80" height="80" as="geometry" />
        </mxCell>
        <mxCell id="ugPQJOIu22FoE4jq5PuM-47" value="" style="endArrow=none;html=1;rounded=0;entryX=0.075;entryY=0.738;entryDx=0;entryDy=0;entryPerimeter=0;exitX=0.95;exitY=0.275;exitDx=0;exitDy=0;exitPerimeter=0;" edge="1" parent="ugPQJOIu22FoE4jq5PuM-1" source="ugPQJOIu22FoE4jq5PuM-12" target="ugPQJOIu22FoE4jq5PuM-46">
          <mxGeometry width="50" height="50" relative="1" as="geometry">
            <mxPoint x="400" y="400" as="sourcePoint" />
            <mxPoint x="450" y="350" as="targetPoint" />
          </mxGeometry>
        </mxCell>
        <mxCell id="ugPQJOIu22FoE4jq5PuM-48" value="" style="endArrow=none;html=1;rounded=0;exitX=0.25;exitY=0;exitDx=0;exitDy=0;exitPerimeter=0;" edge="1" parent="ugPQJOIu22FoE4jq5PuM-1" source="ugPQJOIu22FoE4jq5PuM-46" target="ugPQJOIu22FoE4jq5PuM-10">
          <mxGeometry width="50" height="50" relative="1" as="geometry">
            <mxPoint x="450" y="300" as="sourcePoint" />
            <mxPoint x="500" y="250" as="targetPoint" />
          </mxGeometry>
        </mxCell>
        <mxCell id="ugPQJOIu22FoE4jq5PuM-49" value="pausar cancion" style="ellipse;whiteSpace=wrap;html=1;aspect=fixed;" vertex="1" parent="ugPQJOIu22FoE4jq5PuM-1">
          <mxGeometry x="530" y="200" width="80" height="80" as="geometry" />
        </mxCell>
        <mxCell id="ugPQJOIu22FoE4jq5PuM-50" value="cambiar de cancion" style="ellipse;whiteSpace=wrap;html=1;aspect=fixed;" vertex="1" parent="ugPQJOIu22FoE4jq5PuM-1">
          <mxGeometry x="530" y="410" width="80" height="80" as="geometry" />
        </mxCell>
        <mxCell id="ugPQJOIu22FoE4jq5PuM-51" value="" style="endArrow=none;html=1;rounded=0;entryX=0;entryY=1;entryDx=0;entryDy=0;" edge="1" parent="ugPQJOIu22FoE4jq5PuM-1" source="ugPQJOIu22FoE4jq5PuM-46" target="ugPQJOIu22FoE4jq5PuM-49">
          <mxGeometry width="50" height="50" relative="1" as="geometry">
            <mxPoint x="460" y="260" as="sourcePoint" />
            <mxPoint x="510" y="210" as="targetPoint" />
          </mxGeometry>
        </mxCell>
        <mxCell id="ugPQJOIu22FoE4jq5PuM-52" value="" style="endArrow=none;html=1;rounded=0;entryX=0.5;entryY=1;entryDx=0;entryDy=0;exitX=0.013;exitY=0.313;exitDx=0;exitDy=0;exitPerimeter=0;" edge="1" parent="ugPQJOIu22FoE4jq5PuM-1" source="ugPQJOIu22FoE4jq5PuM-50" target="ugPQJOIu22FoE4jq5PuM-46">
          <mxGeometry width="50" height="50" relative="1" as="geometry">
            <mxPoint x="440" y="430" as="sourcePoint" />
            <mxPoint x="490" y="380" as="targetPoint" />
          </mxGeometry>
        </mxCell>
        <mxCell id="ugPQJOIu22FoE4jq5PuM-53" value="volver a repetir cancion" style="ellipse;whiteSpace=wrap;html=1;aspect=fixed;" vertex="1" parent="ugPQJOIu22FoE4jq5PuM-1">
          <mxGeometry x="580" y="300" width="80" height="80" as="geometry" />
        </mxCell>
        <mxCell id="ugPQJOIu22FoE4jq5PuM-54" value="" style="endArrow=none;html=1;rounded=0;entryX=0;entryY=0.5;entryDx=0;entryDy=0;exitX=1;exitY=0.5;exitDx=0;exitDy=0;" edge="1" parent="ugPQJOIu22FoE4jq5PuM-1" source="ugPQJOIu22FoE4jq5PuM-46" target="ugPQJOIu22FoE4jq5PuM-53">
          <mxGeometry width="50" height="50" relative="1" as="geometry">
            <mxPoint x="500" y="400" as="sourcePoint" />
            <mxPoint x="550" y="350" as="targetPoint" />
          </mxGeometry>
        </mxCell>
        <mxCell id="ugPQJOIu22FoE4jq5PuM-55" value="usario registrado" style="ellipse;whiteSpace=wrap;html=1;aspect=fixed;" vertex="1" parent="ugPQJOIu22FoE4jq5PuM-1">
          <mxGeometry x="597" y="495" width="80" height="80" as="geometry" />
        </mxCell>
        <mxCell id="ugPQJOIu22FoE4jq5PuM-56" value="devolver listado de canciones" style="ellipse;whiteSpace=wrap;html=1;aspect=fixed;" vertex="1" parent="ugPQJOIu22FoE4jq5PuM-1">
          <mxGeometry x="320" y="500" width="80" height="80" as="geometry" />
        </mxCell>
        <mxCell id="ugPQJOIu22FoE4jq5PuM-58" value="mostrar un inicio adaptado a sus gustos" style="ellipse;whiteSpace=wrap;html=1;aspect=fixed;" vertex="1" parent="ugPQJOIu22FoE4jq5PuM-1">
          <mxGeometry x="460" y="520" width="80" height="80" as="geometry" />
        </mxCell>
        <mxCell id="ugPQJOIu22FoE4jq5PuM-59" value="reproducir musica&lt;div&gt;elegida&lt;/div&gt;" style="ellipse;whiteSpace=wrap;html=1;aspect=fixed;" vertex="1" parent="ugPQJOIu22FoE4jq5PuM-1">
          <mxGeometry x="240" y="630" width="80" height="80" as="geometry" />
        </mxCell>
        <mxCell id="ugPQJOIu22FoE4jq5PuM-61" value="" style="endArrow=none;html=1;rounded=0;entryX=0.075;entryY=0.733;entryDx=0;entryDy=0;entryPerimeter=0;" edge="1" parent="ugPQJOIu22FoE4jq5PuM-1" source="ugPQJOIu22FoE4jq5PuM-58" target="ugPQJOIu22FoE4jq5PuM-55">
          <mxGeometry width="50" height="50" relative="1" as="geometry">
            <mxPoint x="540" y="630" as="sourcePoint" />
            <mxPoint x="590" y="580" as="targetPoint" />
          </mxGeometry>
        </mxCell>
        <mxCell id="ugPQJOIu22FoE4jq5PuM-64" value="" style="endArrow=none;html=1;rounded=0;exitX=1;exitY=0.5;exitDx=0;exitDy=0;entryX=0;entryY=0.5;entryDx=0;entryDy=0;" edge="1" parent="ugPQJOIu22FoE4jq5PuM-1" source="ugPQJOIu22FoE4jq5PuM-56" target="ugPQJOIu22FoE4jq5PuM-58">
          <mxGeometry width="50" height="50" relative="1" as="geometry">
            <mxPoint x="420" y="550" as="sourcePoint" />
            <mxPoint x="470" y="500" as="targetPoint" />
          </mxGeometry>
        </mxCell>
        <mxCell id="ugPQJOIu22FoE4jq5PuM-65" value="" style="endArrow=none;html=1;rounded=0;exitX=0.446;exitY=0.013;exitDx=0;exitDy=0;exitPerimeter=0;entryX=0.321;entryY=0.979;entryDx=0;entryDy=0;entryPerimeter=0;" edge="1" parent="ugPQJOIu22FoE4jq5PuM-1" source="ugPQJOIu22FoE4jq5PuM-59" target="ugPQJOIu22FoE4jq5PuM-56">
          <mxGeometry width="50" height="50" relative="1" as="geometry">
            <mxPoint x="290" y="630" as="sourcePoint" />
            <mxPoint x="340" y="580" as="targetPoint" />
          </mxGeometry>
        </mxCell>
        <mxCell id="ugPQJOIu22FoE4jq5PuM-66" value="extend" style="text;html=1;align=center;verticalAlign=middle;resizable=0;points=[];autosize=1;strokeColor=none;fillColor=none;" vertex="1" parent="ugPQJOIu22FoE4jq5PuM-1">
          <mxGeometry x="110" y="50" width="60" height="30" as="geometry" />
        </mxCell>
        <mxCell id="ugPQJOIu22FoE4jq5PuM-69" value="include" style="text;html=1;align=center;verticalAlign=middle;resizable=0;points=[];autosize=1;strokeColor=none;fillColor=none;" vertex="1" parent="ugPQJOIu22FoE4jq5PuM-1">
          <mxGeometry x="230" y="90" width="60" height="30" as="geometry" />
        </mxCell>
        <mxCell id="ugPQJOIu22FoE4jq5PuM-67" value="extend" style="text;html=1;align=center;verticalAlign=middle;resizable=0;points=[];autosize=1;strokeColor=none;fillColor=none;" vertex="1" parent="ugPQJOIu22FoE4jq5PuM-1">
          <mxGeometry x="90" y="120" width="60" height="30" as="geometry" />
        </mxCell>
        <mxCell id="wzEy-KdQJLeV5Jcg8Yoz-1" value="include" style="text;html=1;align=center;verticalAlign=middle;resizable=0;points=[];autosize=1;strokeColor=none;fillColor=none;" vertex="1" parent="ugPQJOIu22FoE4jq5PuM-1">
          <mxGeometry x="480" y="260" width="60" height="30" as="geometry" />
        </mxCell>
        <mxCell id="wzEy-KdQJLeV5Jcg8Yoz-2" value="include" style="text;html=1;align=center;verticalAlign=middle;resizable=0;points=[];autosize=1;strokeColor=none;fillColor=none;" vertex="1" parent="ugPQJOIu22FoE4jq5PuM-1">
          <mxGeometry x="520" y="310" width="60" height="30" as="geometry" />
        </mxCell>
        <mxCell id="wzEy-KdQJLeV5Jcg8Yoz-4" value="include" style="text;html=1;align=center;verticalAlign=middle;resizable=0;points=[];autosize=1;strokeColor=none;fillColor=none;" vertex="1" parent="ugPQJOIu22FoE4jq5PuM-1">
          <mxGeometry x="500" y="380" width="60" height="30" as="geometry" />
        </mxCell>
        <mxCell id="wzEy-KdQJLeV5Jcg8Yoz-5" value="extend" style="text;html=1;align=center;verticalAlign=middle;resizable=0;points=[];autosize=1;strokeColor=none;fillColor=none;" vertex="1" parent="ugPQJOIu22FoE4jq5PuM-1">
          <mxGeometry x="210" y="185" width="60" height="30" as="geometry" />
        </mxCell>
        <mxCell id="wzEy-KdQJLeV5Jcg8Yoz-6" value="include" style="text;html=1;align=center;verticalAlign=middle;resizable=0;points=[];autosize=1;strokeColor=none;fillColor=none;" vertex="1" parent="ugPQJOIu22FoE4jq5PuM-1">
          <mxGeometry x="280" y="370" width="60" height="30" as="geometry" />
        </mxCell>
        <mxCell id="wzEy-KdQJLeV5Jcg8Yoz-7" value="extend" style="text;html=1;align=center;verticalAlign=middle;resizable=0;points=[];autosize=1;strokeColor=none;fillColor=none;" vertex="1" parent="ugPQJOIu22FoE4jq5PuM-1">
          <mxGeometry x="380" y="350" width="60" height="30" as="geometry" />
        </mxCell>
        <mxCell id="wzEy-KdQJLeV5Jcg8Yoz-9" value="extend" style="text;html=1;align=center;verticalAlign=middle;resizable=0;points=[];autosize=1;strokeColor=none;fillColor=none;" vertex="1" parent="ugPQJOIu22FoE4jq5PuM-1">
          <mxGeometry x="290" y="240" width="60" height="30" as="geometry" />
        </mxCell>
        <mxCell id="ugPQJOIu22FoE4jq5PuM-3" value="Usuario" style="shape=umlActor;verticalLabelPosition=bottom;verticalAlign=top;html=1;outlineConnect=0;" vertex="1" parent="1">
          <mxGeometry x="70" y="100" width="30" height="60" as="geometry" />
        </mxCell>
        <mxCell id="ugPQJOIu22FoE4jq5PuM-4" value="Dase de Datos" style="shape=umlActor;verticalLabelPosition=bottom;verticalAlign=top;html=1;outlineConnect=0;" vertex="1" parent="1">
          <mxGeometry x="910" y="340" width="30" height="60" as="geometry" />
        </mxCell>
        <mxCell id="ugPQJOIu22FoE4jq5PuM-15" value="" style="endArrow=none;html=1;rounded=0;" edge="1" parent="1" target="ugPQJOIu22FoE4jq5PuM-6">
          <mxGeometry width="50" height="50" relative="1" as="geometry">
            <mxPoint x="100" y="160" as="sourcePoint" />
            <mxPoint x="150" y="110" as="targetPoint" />
          </mxGeometry>
        </mxCell>
        <mxCell id="ugPQJOIu22FoE4jq5PuM-60" value="" style="endArrow=none;html=1;rounded=0;entryX=0;entryY=1;entryDx=0;entryDy=0;entryPerimeter=0;exitX=0.717;exitY=0.054;exitDx=0;exitDy=0;exitPerimeter=0;" edge="1" parent="1" source="ugPQJOIu22FoE4jq5PuM-55" target="ugPQJOIu22FoE4jq5PuM-4">
          <mxGeometry width="50" height="50" relative="1" as="geometry">
            <mxPoint x="860" y="440" as="sourcePoint" />
            <mxPoint x="910" y="390" as="targetPoint" />
          </mxGeometry>
        </mxCell>
        <mxCell id="ugPQJOIu22FoE4jq5PuM-63" value="" style="endArrow=none;html=1;rounded=0;edgeStyle=orthogonalEdgeStyle;entryX=1;entryY=1;entryDx=0;entryDy=0;entryPerimeter=0;" edge="1" parent="1" source="ugPQJOIu22FoE4jq5PuM-59" target="ugPQJOIu22FoE4jq5PuM-4">
          <mxGeometry width="50" height="50" relative="1" as="geometry">
            <mxPoint x="880" y="710" as="sourcePoint" />
            <mxPoint x="930" y="660" as="targetPoint" />
            <Array as="points">
              <mxPoint x="940" y="760" />
            </Array>
          </mxGeometry>
        </mxCell>
        <mxCell id="wzEy-KdQJLeV5Jcg8Yoz-8" value="extend" style="text;html=1;align=center;verticalAlign=middle;resizable=0;points=[];autosize=1;strokeColor=none;fillColor=none;" vertex="1" parent="1">
          <mxGeometry x="490" y="238" width="60" height="30" as="geometry" />
        </mxCell>
      </root>
    </mxGraphModel>
  </diagram>
</mxfile>
